<?xml version="1.0" encoding="UTF-8"?>
<svg id="Calque_2" data-name="Calque 2" xmlns="http://www.w3.org/2000/svg" viewBox="0 0 139.53 33.94">
  <defs>
    <style>
      .cls-1 {
        fill: #fff;
      }
    </style>
  </defs>
  <g id="Calque_1-2" data-name="Calque 1">
    <path class="cls-1" d="m16.6.8c-2.78,0-5.33.96-7.33,2.57-2.64,2.12-4.33,5.37-4.33,9,0,.63.05,1.24.15,1.84.21,1.32.65,2.57,1.28,3.71.78,1.42,1.86,2.67,3.16,3.65,1.34,1.02,2.92,1.76,4.63,2.12.79.17,1.61.26,2.45.26s1.73-.1,2.55-.28c.23-.04.46-.1.68-.17,1.81-.61,3.11-2.31,3.11-4.31,0-.44-.06-.87-.18-1.27-.37-1.28-2.13-2.73-3.42-2.87-1.65-.17-1.38-.79.15-.84.01,0,.02,0,.03,0,2.56,0,4.76,1.52,5.74,3.71.23.52.39,1.07.48,1.65.04.29.06.58.06.88,0,1.39-.46,2.67-1.23,3.7-.02.03-.04.06-.06.08-.23.27-.48.53-.73.79l-.09.09-8.56,8.49c-.44.44-1.16.44-1.6,0l-8.07-8.01-.58-.58c-.3-.3-.58-.6-.84-.92-1.67-1.71-2.9-3.82-3.54-6.19-.23-.84-.38-1.71-.45-2.6C-.64,6.5,6.44-.57,15.32.04l.2.03c1.44.37,1.57.75,1.08.73Z"/>
    <g>
      <path class="cls-1" d="m51.69,20.8c1.17,0,2.05,1.12,1.71,2.23-.45,1.49-1.26,2.73-2.41,3.72-1.69,1.45-3.92,2.17-6.69,2.17-3.03,0-5.41-1.01-7.15-3.03-1.74-2.02-2.6-4.8-2.6-8.33v-1.43c0-2.25.4-4.24,1.2-5.96.8-1.72,1.94-3.03,3.43-3.95,1.49-.92,3.21-1.38,5.18-1.38,2.73,0,4.92.72,6.59,2.17,1.15,1,1.97,2.29,2.45,3.85.34,1.12-.52,2.25-1.7,2.25h-1.22c-.83,0-1.52-.58-1.73-1.37s-.57-1.46-1.05-1.92c-.73-.68-1.84-1.02-3.33-1.02-1.62,0-2.84.58-3.64,1.73-.81,1.15-1.22,2.94-1.24,5.37v1.77c0,2.53.39,4.38,1.16,5.55.77,1.17,1.99,1.75,3.66,1.75,1.5,0,2.62-.34,3.37-1.02.49-.45.85-1.07,1.06-1.86s.86-1.3,1.65-1.3h1.32Z"/>
      <path class="cls-1" d="m55.96,19.74c0-1.73.34-3.27,1.01-4.62.67-1.35,1.64-2.4,2.9-3.14,1.26-.74,2.72-1.11,4.39-1.11,2.37,0,4.3.72,5.8,2.16,1.5,1.44,2.33,3.39,2.51,5.86l.03,1.19c0,2.67-.75,4.82-2.25,6.43-1.5,1.62-3.52,2.42-6.05,2.42s-4.55-.8-6.06-2.41-2.26-3.8-2.26-6.57v-.21Zm4.69.33c0,1.66.31,2.92.94,3.8.63.88,1.52,1.31,2.69,1.31s2.02-.43,2.66-1.3c.64-.87.96-2.25.96-4.15,0-1.62-.32-2.88-.96-3.77-.64-.89-1.54-1.34-2.69-1.34s-2.03.44-2.66,1.33c-.63.89-.94,2.26-.94,4.12Z"/>
      <path class="cls-1" d="m74.03,11.81h0c-.64-.37-.92-1.17-.61-1.84.52-1.1.79-2.22.82-3.37v-1.27c0-.8.66-1.45,1.46-1.45h.8c.81,0,1.46.65,1.46,1.45v1.04c0,.97-.27,2.01-.81,3.14-.36.75-.8,1.43-1.32,2.02-.45.51-1.22.61-1.81.27Z"/>
      <path class="cls-1" d="m100.28,23.37c0,1.8-1,3.47-2.63,4.25-.34.16-.7.31-1.09.45-1.6.57-3.37.86-5.32.86-2.04,0-3.84-.44-5.38-1.33s-2.73-2.17-3.57-3.86c-.84-1.68-1.27-3.66-1.29-5.94v-1.59c0-2.34.4-4.36,1.19-6.08.79-1.71,1.94-3.02,3.44-3.93,1.5-.91,3.25-1.36,5.26-1.36,2.8,0,4.99.66,6.57,1.99,1.26,1.06,2.11,2.5,2.55,4.33.18.75-.41,1.46-1.18,1.46h-2.33c-.53,0-1.01-.34-1.16-.84-.26-.92-.68-1.62-1.25-2.1-.74-.62-1.76-.93-3.06-.93-1.65,0-2.91.62-3.78,1.85-.87,1.23-1.3,3.07-1.31,5.51v1.5c0,2.46.47,4.31,1.41,5.57s2.32,1.88,4.14,1.88c.93,0,1.72-.1,2.38-.3.92-.28,1.53-1.15,1.53-2.11v-2.47c0-.18-.14-.32-.32-.32h-2.9c-.67,0-1.2-.54-1.2-1.2v-1.17c0-.66.54-1.2,1.2-1.2h6.89c.67,0,1.2.54,1.2,1.2v5.88Z"/>
      <path class="cls-1" d="m100.7,8.49c.09-.13,4.17-3.96,4.17-3.96.28-.26.64-.4,1.03-.4h1.54c.38,0,.75.14,1.03.4,0,0,4.2,3.88,4.43,4.1s0,.19,0,.19h-3.13c-.38,0-.75-.14-1.04-.4l-1.6-1.5c-.26-.24-.66-.24-.92,0l-1.6,1.5c-.28.26-.65.41-1.04.41h-2.43c-.53.03-.69-.08-.45-.34Zm6.77,20.12h-1.68c-.83,0-1.51-.67-1.51-1.49v-14.43c0-.82.67-1.49,1.51-1.49h1.68c.83,0,1.51.67,1.51,1.49v14.43c0,.82-.67,1.49-1.51,1.49Z"/>
      <path class="cls-1" d="m118.62,7.63v3.22c0,.19.15.34.34.34h1.93c.4,0,.72.32.72.72v1.97c0,.4-.32.72-.72.72h-1.93c-.19,0-.34.15-.34.34v8.35c0,.64.12,1.11.37,1.38.25.28.72.42,1.43.42.21,0,.42,0,.61-.02.42-.03.77.3.77.72v2.17c0,.32-.25.63-.56.7-.74.18-1.5.27-2.28.27-3.29,0-4.96-1.65-5.03-4.94v-9.05c0-.19-.15-.34-.34-.34h-1.5c-.4,0-.72-.32-.72-.72v-1.97c0-.4.32-.72.72-.72h1.5c.19,0,.34-.15.34-.34v-3.22c0-.4.32-.72.72-.72h3.24c.4,0,.72.32.72.72Z"/>
      <path class="cls-1" d="m132.31,28.93c-2.57,0-4.67-.78-6.29-2.35-1.62-1.57-2.42-3.65-2.42-6.26v-.45c0-1.75.34-3.31,1.02-4.69.68-1.38,1.65-2.44,2.9-3.19,1.25-.75,2.67-1.12,4.27-1.12,2.4,0,4.29.75,5.67,2.25,1.38,1.5,2.07,3.63,2.07,6.39v.97c0,.51-.42.93-.94.93h-9.59c-.34,0-.61.32-.52.65.22.84.63,1.53,1.24,2.08.76.69,1.73,1.03,2.9,1.03,1.46,0,2.66-.42,3.6-1.27.38-.34.97-.3,1.32.08l1.09,1.21c.32.35.33.89,0,1.24-.63.68-1.41,1.24-2.33,1.66-1.2.55-2.53.83-3.99.83Zm-.54-14.31c-.93,0-1.68.31-2.26.94-.36.39-.64.88-.83,1.47-.37,1.22-.42,1.22.9,1.22l4.84-.03c.31.03.48-.09.5-.34-.02-1.03-.3-1.84-.84-2.4-.54-.57-1.31-.85-2.3-.85Z"/>
    </g>
  </g>
</svg>